<svg width="1440" height="826" viewBox="0 0 1440 826" fill="none" xmlns="http://www.w3.org/2000/svg">
<mask id="mask0_220_11007" style="mask-type:luminance" maskUnits="userSpaceOnUse" x="0" y="0" width="1440" height="826">
<path d="M1440 0H0V826H1440V0Z" fill="white"/>
</mask>
<g mask="url(#mask0_220_11007)">
<path d="M1440 0H0V826H1440V0Z" fill="#100E34"/>
<path d="M0.000152588 660.529C92.8792 656.291 185.791 675.409 272.018 624.321C370.128 566.192 496.01 502.699 521.704 351.425C548.315 194.752 434.98 65.4976 392.184 -83.1721C362.072 -187.779 340.149 -290.036 307.432 -392.928C261.47 -537.472 262.269 -752.601 161.178 -809.658C62.4242 -865.397 -34.6898 -714.115 -127.036 -638.15C-200.814 -577.459 -264.582 -502.913 -322.306 -411.938C-382.197 -317.548 -445.255 -223.936 -468.857 -99.4324C-494.255 34.5418 -491.418 178.552 -459.013 309.196C-425.085 445.978 -370.701 582.562 -283.053 649.648C-197.546 715.095 -96.2879 664.923 0.000152588 660.529Z" fill="#0D0B2A"/>
<path d="M1440 1758.98C1556.38 1759.15 1646.31 1612.34 1732.02 1496.23C1806.32 1395.59 1866.55 1276.24 1900.01 1135.87C1931.48 1003.81 1924.1 864.537 1915.82 725.092C1907.07 577.833 1897.04 432.303 1850.42 301.444C1794.7 145.034 1739.15 -49.7723 1623.46 -95.5873C1507.58 -141.478 1406.83 31.1845 1291.52 80.1147C1175.32 129.424 1023.41 57.5619 944.392 192.566C865.358 327.603 908.287 538.012 919.569 715.63C928.669 858.906 964.562 988.092 1003.31 1120.16C1042.88 1255.03 1077.61 1391.91 1148.34 1495.39C1230.97 1616.27 1323.63 1758.81 1440 1758.98Z" fill="#13113E"/>
</g>
</svg>
